<svg version="1.1" viewBox="0.0 0.0 1000.0 1000.0" fill="none" stroke="none" stroke-linecap="square" stroke-miterlimit="10" xmlns:xlink="http://www.w3.org/1999/xlink" xmlns="http://www.w3.org/2000/svg"><clipPath id="p.0"><path d="m0 0l1000.0 0l0 1000.0l-1000.0 0l0 -1000.0z" clip-rule="nonzero"/></clipPath><g clip-path="url(#p.0)"><path fill="#000000" fill-opacity="0.0" d="m0 0l1000.0 0l0 1000.0l-1000.0 0z" fill-rule="evenodd"/><defs><linearGradient id="p.1" gradientUnits="userSpaceOnUse" gradientTransform="matrix(3.5849212875645478 35.491212844696456 -35.491212844696456 3.5849212875645478 0.0 0.0)" spreadMethod="pad" x1="15.349369085908192" y1="-37.63328625214563" x2="-9.741824527404125" y2="-12.532326265586908"><stop offset="0.0" stop-color="#1651a4"/><stop offset="1.0" stop-color="#19a97a"/></linearGradient></defs><path fill="url(#p.1)" d="m812.62683 9.456957l0 0c42.993713 -4.3445244 81.36749 26.986986 85.710266 69.98089l76.05298 752.93524c2.0854492 20.646362 -4.116211 41.27594 -17.240662 57.350403c-13.124512 16.074463 -32.09674 26.277039 -52.743103 28.363342l-717.03033 72.456116c-42.99373 4.3444824 -81.36752 -26.987 -85.71028 -69.980896l-76.05301 -752.93524c-4.342758 -42.993896 26.990038 -81.36927 69.98376 -85.7138z" fill-rule="evenodd"/><path fill="#ffffff" d="m503.1796 181.38844c-60.418854 0 -113.01828 15.701828 -157.79831 47.1055c-52.129395 36.178482 -78.19409 83.92671 -78.19409 143.24477c0 44.35077 14.784241 79.70285 44.352722 106.05621c29.910309 27.087952 81.313324 47.38092 154.20905 60.87903l54.864075 10.330139c17.262512 3.4892578 33.499573 7.3917847 48.71106 11.70752c45.207336 13.038879 67.810974 34.479675 67.810974 64.32239c0 30.669067 -12.989624 53.441284 -38.968872 68.31671c-12.562317 7.0704346 -27.346558 12.212585 -44.352722 15.426392c-17.006165 3.2138062 -33.585022 4.8207397 -49.736572 4.8207397c-16.15158 0 -32.046783 -1.6987915 -47.685608 -5.0962524c-47.17285 -10.008728 -98.61859 -34.34192 -154.33722 -72.999695l-49.352036 95.31287c23.58641 18.91565 44.65184 33.28607 63.196213 43.111145c56.402313 29.842651 116.65024 44.763977 180.7438 44.763977c69.22098 0 126.477875 -16.252747 171.77066 -48.7583c23.842773 -16.895508 42.985413 -38.47406 57.427795 -64.735596c14.527893 -26.261536 21.79181 -55.96643 21.79181 -89.11481c0 -33.240112 -6.1102295 -60.19037 -18.33075 -80.85065c-12.13501 -20.660278 -30.337585 -38.933197 -54.607666 -54.818634c-24.184631 -15.885468 -66.14453 -29.796753 -125.8797 -41.733826l-68.58011 -12.809387c-21.108154 -3.9484253 -39.994354 -9.090515 -56.65869 -15.426361c-31.363098 -11.569763 -47.044647 -28.603058 -47.044647 -51.099792c0 -21.945831 12.2204895 -39.57596 36.6615 -52.89038c23.842804 -12.763489 51.53119 -19.145233 83.065216 -19.145233c14.100586 0 28.713898 1.1937256 43.839996 3.5811462c48.369263 6.794922 95.58484 25.06781 141.64673 54.818665l39.22522 -100.82228c-26.235596 -15.334549 -47.4292 -26.44519 -63.58081 -33.331955c-45.80548 -20.10936 -97.208496 -30.164047 -154.20901 -30.164047z" fill-rule="evenodd"/></g></svg>